<mxfile host="app.diagrams.net" agent="Mozilla/5.0 (Windows NT 10.0; Win64; x64) AppleWebKit/537.36 (KHTML, like Gecko) Chrome/132.0.0.0 Safari/537.36" version="26.1.0">
  <diagram name="Page-1" id="-GnBmzAylbWBGqTUbLzE">
    <mxGraphModel grid="1" page="1" gridSize="10" guides="1" tooltips="1" connect="1" arrows="1" fold="1" pageScale="1" pageWidth="850" pageHeight="1100" math="0" shadow="0">
      <root>
        <mxCell id="0" />
        <mxCell id="1" parent="0" />
        <mxCell id="tdo8PRbueSXgIs6O2EiA-1" value="Begin&#xa;    NHẬP a, b, c&#xa;    giá_trị_lớn_nhất = a&#xa;&#xa;&#xa;    NẾU a &gt; b VÀ a &gt; c THÌ&#xa;        giá_trị_lớn_nhất = a&#xa;    KHÁC&#xa;        NẾU b &gt; c THÌ&#xa;            giá_trị_lớn_nhất = b&#xa;        KHÁC&#xa;            giá_trị_lớn_nhất = c&#xa;    KẾT THÚC NẾU&#xa;&#xa;&#xa;    HIỂN THỊ giá_trị_lớn_nhất&#xa;KẾT THÚC" style="text;whiteSpace=wrap;" vertex="1" parent="1">
          <mxGeometry x="650" y="100" width="190" height="270" as="geometry" />
        </mxCell>
        <mxCell id="tdo8PRbueSXgIs6O2EiA-2" value="begin" style="strokeWidth=2;html=1;shape=mxgraph.flowchart.terminator;whiteSpace=wrap;" vertex="1" parent="1">
          <mxGeometry x="110" y="60" width="170" height="50" as="geometry" />
        </mxCell>
        <mxCell id="tdo8PRbueSXgIs6O2EiA-3" value="" style="endArrow=classic;html=1;rounded=0;" edge="1" parent="1">
          <mxGeometry width="50" height="50" relative="1" as="geometry">
            <mxPoint x="190" y="110" as="sourcePoint" />
            <mxPoint x="190" y="140" as="targetPoint" />
          </mxGeometry>
        </mxCell>
        <mxCell id="tdo8PRbueSXgIs6O2EiA-4" value="input a, b, c" style="shape=parallelogram;perimeter=parallelogramPerimeter;whiteSpace=wrap;html=1;fixedSize=1;" vertex="1" parent="1">
          <mxGeometry x="120" y="140" width="160" height="60" as="geometry" />
        </mxCell>
        <mxCell id="tdo8PRbueSXgIs6O2EiA-7" value="" style="endArrow=classic;html=1;rounded=0;exitX=0.453;exitY=1.007;exitDx=0;exitDy=0;exitPerimeter=0;" edge="1" parent="1">
          <mxGeometry width="50" height="50" relative="1" as="geometry">
            <mxPoint x="196.24" y="195.20999999999995" as="sourcePoint" />
            <mxPoint x="196" y="250" as="targetPoint" />
          </mxGeometry>
        </mxCell>
        <mxCell id="tdo8PRbueSXgIs6O2EiA-9" value="" style="endArrow=classic;html=1;rounded=0;exitX=0.5;exitY=1;exitDx=0;exitDy=0;" edge="1" parent="1">
          <mxGeometry width="50" height="50" relative="1" as="geometry">
            <mxPoint x="190" y="310" as="sourcePoint" />
            <mxPoint x="120" y="380" as="targetPoint" />
          </mxGeometry>
        </mxCell>
        <mxCell id="tdo8PRbueSXgIs6O2EiA-11" value="gia tri lon nhat = a" style="rhombus;whiteSpace=wrap;html=1;" vertex="1" parent="1">
          <mxGeometry x="120" y="240" width="140" height="80" as="geometry" />
        </mxCell>
        <mxCell id="tdo8PRbueSXgIs6O2EiA-12" value="b&amp;gt;c" style="rounded=0;whiteSpace=wrap;html=1;" vertex="1" parent="1">
          <mxGeometry x="60" y="370" width="120" height="60" as="geometry" />
        </mxCell>
        <mxCell id="tdo8PRbueSXgIs6O2EiA-15" value="a&amp;gt;b và a&amp;gt;c" style="rounded=0;whiteSpace=wrap;html=1;" vertex="1" parent="1">
          <mxGeometry x="340" y="260" width="120" height="60" as="geometry" />
        </mxCell>
        <mxCell id="tdo8PRbueSXgIs6O2EiA-16" value="" style="endArrow=classic;html=1;rounded=0;" edge="1" parent="1">
          <mxGeometry width="50" height="50" relative="1" as="geometry">
            <mxPoint x="420" y="320" as="sourcePoint" />
            <mxPoint x="460" y="370" as="targetPoint" />
          </mxGeometry>
        </mxCell>
        <mxCell id="tdo8PRbueSXgIs6O2EiA-18" value="&lt;br&gt;&lt;span style=&quot;color: rgb(255, 255, 255); font-family: Helvetica; font-size: 12px; font-style: normal; font-variant-ligatures: normal; font-variant-caps: normal; font-weight: 400; letter-spacing: normal; orphans: 2; text-align: center; text-indent: 0px; text-transform: none; widows: 2; word-spacing: 0px; -webkit-text-stroke-width: 0px; white-space: normal; background-color: rgb(251, 251, 251); text-decoration-thickness: initial; text-decoration-style: initial; text-decoration-color: initial; float: none; display: inline !important;&quot;&gt;giá trị lớn nhất = a&lt;/span&gt;&lt;div&gt;&lt;br/&gt;&lt;/div&gt;" style="shape=parallelogram;perimeter=parallelogramPerimeter;whiteSpace=wrap;html=1;fixedSize=1;" vertex="1" parent="1">
          <mxGeometry x="390" y="370" width="140" height="60" as="geometry" />
        </mxCell>
        <mxCell id="tdo8PRbueSXgIs6O2EiA-20" value="" style="endArrow=classic;html=1;rounded=0;" edge="1" parent="1" source="tdo8PRbueSXgIs6O2EiA-25">
          <mxGeometry width="50" height="50" relative="1" as="geometry">
            <mxPoint x="120" y="440" as="sourcePoint" />
            <mxPoint x="130" y="490" as="targetPoint" />
          </mxGeometry>
        </mxCell>
        <mxCell id="tdo8PRbueSXgIs6O2EiA-21" value="giá trị lớn nhất = b" style="shape=parallelogram;perimeter=parallelogramPerimeter;whiteSpace=wrap;html=1;fixedSize=1;" vertex="1" parent="1">
          <mxGeometry x="45" y="490" width="150" height="60" as="geometry" />
        </mxCell>
        <mxCell id="tdo8PRbueSXgIs6O2EiA-23" value="" style="endArrow=classic;html=1;rounded=0;exitX=1;exitY=0.5;exitDx=0;exitDy=0;entryX=0.295;entryY=-0.067;entryDx=0;entryDy=0;entryPerimeter=0;" edge="1" parent="1" source="tdo8PRbueSXgIs6O2EiA-12" target="tdo8PRbueSXgIs6O2EiA-24">
          <mxGeometry width="50" height="50" relative="1" as="geometry">
            <mxPoint x="240" y="470" as="sourcePoint" />
            <mxPoint x="320" y="480" as="targetPoint" />
          </mxGeometry>
        </mxCell>
        <mxCell id="tdo8PRbueSXgIs6O2EiA-24" value="giá trị lớn nhất = c" style="shape=parallelogram;perimeter=parallelogramPerimeter;whiteSpace=wrap;html=1;fixedSize=1;" vertex="1" parent="1">
          <mxGeometry x="230" y="420" width="160" height="60" as="geometry" />
        </mxCell>
        <mxCell id="tdo8PRbueSXgIs6O2EiA-26" value="" style="endArrow=classic;html=1;rounded=0;" edge="1" parent="1" target="tdo8PRbueSXgIs6O2EiA-25">
          <mxGeometry width="50" height="50" relative="1" as="geometry">
            <mxPoint x="120" y="440" as="sourcePoint" />
            <mxPoint x="130" y="490" as="targetPoint" />
          </mxGeometry>
        </mxCell>
        <mxCell id="tdo8PRbueSXgIs6O2EiA-25" value="yes" style="text;html=1;align=center;verticalAlign=middle;resizable=0;points=[];autosize=1;strokeColor=none;fillColor=none;" vertex="1" parent="1">
          <mxGeometry x="100" y="450" width="40" height="30" as="geometry" />
        </mxCell>
        <mxCell id="tdo8PRbueSXgIs6O2EiA-27" value="no" style="text;html=1;align=center;verticalAlign=middle;resizable=0;points=[];autosize=1;strokeColor=none;fillColor=none;" vertex="1" parent="1">
          <mxGeometry x="220" y="380" width="40" height="30" as="geometry" />
        </mxCell>
        <mxCell id="tdo8PRbueSXgIs6O2EiA-29" value="" style="endArrow=classic;html=1;rounded=0;entryX=0;entryY=0.5;entryDx=0;entryDy=0;" edge="1" parent="1" source="tdo8PRbueSXgIs6O2EiA-11" target="tdo8PRbueSXgIs6O2EiA-15">
          <mxGeometry width="50" height="50" relative="1" as="geometry">
            <mxPoint x="210" y="310" as="sourcePoint" />
            <mxPoint x="340" y="290" as="targetPoint" />
            <Array as="points" />
          </mxGeometry>
        </mxCell>
        <mxCell id="tdo8PRbueSXgIs6O2EiA-28" value="if" style="text;html=1;align=center;verticalAlign=middle;resizable=0;points=[];autosize=1;strokeColor=none;fillColor=none;" vertex="1" parent="1">
          <mxGeometry x="270" y="265" width="30" height="30" as="geometry" />
        </mxCell>
        <mxCell id="tdo8PRbueSXgIs6O2EiA-30" value="" style="endArrow=classic;html=1;rounded=0;exitX=0.5;exitY=1;exitDx=0;exitDy=0;" edge="1" parent="1" source="tdo8PRbueSXgIs6O2EiA-21">
          <mxGeometry width="50" height="50" relative="1" as="geometry">
            <mxPoint x="200" y="570" as="sourcePoint" />
            <mxPoint x="200" y="640" as="targetPoint" />
          </mxGeometry>
        </mxCell>
        <mxCell id="tdo8PRbueSXgIs6O2EiA-31" value="" style="endArrow=classic;html=1;rounded=0;exitX=0.5;exitY=1;exitDx=0;exitDy=0;" edge="1" parent="1" source="tdo8PRbueSXgIs6O2EiA-18">
          <mxGeometry width="50" height="50" relative="1" as="geometry">
            <mxPoint x="440" y="440" as="sourcePoint" />
            <mxPoint x="250" y="640" as="targetPoint" />
          </mxGeometry>
        </mxCell>
        <mxCell id="tdo8PRbueSXgIs6O2EiA-32" value="" style="endArrow=classic;html=1;rounded=0;exitX=0.41;exitY=0.98;exitDx=0;exitDy=0;exitPerimeter=0;" edge="1" parent="1" source="tdo8PRbueSXgIs6O2EiA-24">
          <mxGeometry width="50" height="50" relative="1" as="geometry">
            <mxPoint x="290" y="490" as="sourcePoint" />
            <mxPoint x="220" y="640" as="targetPoint" />
          </mxGeometry>
        </mxCell>
        <mxCell id="tdo8PRbueSXgIs6O2EiA-33" value="hiển thị giá trị lớn nhất" style="shape=parallelogram;perimeter=parallelogramPerimeter;whiteSpace=wrap;html=1;fixedSize=1;" vertex="1" parent="1">
          <mxGeometry x="90" y="640" width="250" height="60" as="geometry" />
        </mxCell>
        <mxCell id="tdo8PRbueSXgIs6O2EiA-34" value="" style="endArrow=classic;html=1;rounded=0;" edge="1" parent="1">
          <mxGeometry width="50" height="50" relative="1" as="geometry">
            <mxPoint x="220" y="700" as="sourcePoint" />
            <mxPoint x="220" y="730" as="targetPoint" />
          </mxGeometry>
        </mxCell>
        <mxCell id="tdo8PRbueSXgIs6O2EiA-35" value="kết thúc" style="strokeWidth=2;html=1;shape=mxgraph.flowchart.terminator;whiteSpace=wrap;" vertex="1" parent="1">
          <mxGeometry x="140" y="730" width="170" height="50" as="geometry" />
        </mxCell>
      </root>
    </mxGraphModel>
  </diagram>
</mxfile>
